<?xml version="1.0" encoding="iso-8859-1"?>
<!-- Uploaded to: SVG Repo, www.svgrepo.com, Generator: SVG Repo Mixer Tools -->
<svg fill="#000000" height="800px" width="800px" version="1.1" id="Layer_1" xmlns="http://www.w3.org/2000/svg" xmlns:xlink="http://www.w3.org/1999/xlink" 
	 viewBox="0 0 512 512" xml:space="preserve">
<g>
	<g>
		<path d="M468.347,61.099v-3.32c0-11.906-9.687-21.593-21.593-21.593h-44.796l-15.052-31.58C385.565,1.793,382.725,0,379.609,0
			h-60.461c-3.117,0-5.956,1.793-7.298,4.606l-15.051,31.579h-26.84c-4.466,0-8.084,3.618-8.084,8.084
			c0,4.466,3.618,8.084,8.084,8.084h31.942h94.954h49.899c2.991,0,5.425,2.434,5.425,5.425v3.32c0,2.991-2.434,5.425-5.425,5.425
			H268.705h-54.294H100.549H70.211h-4.964c-2.991,0-5.425-2.434-5.425-5.425v-3.32c0-2.991,2.434-5.425,5.425-5.425h176.328
			c4.466,0,8.084-3.618,8.084-8.084c0-4.466-3.619-8.084-8.084-8.084H65.246c-11.906,0-21.593,9.687-21.593,21.593v3.32
			c0,10.844,8.044,19.821,18.474,21.342v22.907c0,9.633,6.343,17.809,15.071,20.581v146.644
			c-8.425,3.257-14.427,11.424-14.427,20.983c0,9.369,5.756,17.412,13.915,20.798v14.57c0,4.466,3.619,8.084,8.084,8.084
			c7.838,0,14.215,6.377,14.215,14.215s-6.377,14.216-14.215,14.216c-3.261,0-6.326-1.074-8.866-3.103
			c-3.487-2.791-8.576-2.223-11.362,1.263c-2.79,3.486-2.224,8.574,1.263,11.362c5.358,4.287,12.093,6.646,18.964,6.646
			c16.754,0,30.384-13.631,30.384-30.385c0-13.956-9.456-25.744-22.299-29.293v-7.201c8.692-3.119,14.937-11.42,14.937-21.173
			c0-9.56-6.002-17.726-14.427-20.983V125.991c8.829-2.711,15.267-10.938,15.267-20.644V82.693h102.503l49.484,47.944v47.193
			c0,11.59,9.429,21.019,21.019,21.019h18.021v76.074v84.158v76.073h-22.501c-2.907,0-5.592,1.561-7.029,4.09l-14.921,26.25h-3.206
			c-11.906,0-21.593,9.687-21.593,21.593v3.32c0,11.906,9.687,21.593,21.593,21.593h194.751c11.906,0,21.593-9.687,21.593-21.593
			v-3.32c0-11.906-9.687-21.593-21.593-21.593h-3.207l-14.924-26.251c-1.437-2.528-4.12-4.089-7.028-4.089h-22.501V359.08v-84.158
			v-76.074h18.021c11.59,0,21.019-9.429,21.019-21.019v-16.497v-57.159V87.678c0-1.72-0.231-3.383-0.622-4.985h9.241
			C458.66,82.693,468.347,73.005,468.347,61.099z M314.71,36.185l9.539-20.016h50.257l9.54,20.016H314.71z M85.282,299.902
			c-3.497,0-6.342-2.846-6.342-6.343c0-3.497,2.846-6.341,6.342-6.341c3.497,0,6.342,2.845,6.342,6.341
			C91.624,297.056,88.779,299.902,85.282,299.902z M92.465,105.348c0,2.991-2.434,5.425-5.425,5.425h-3.32
			c-2.991,0-5.425-2.434-5.425-5.425V82.693h14.17C92.465,82.693,92.465,105.348,92.465,105.348z M260.622,87.678v20.446
			l-26.248-25.431h26.248V87.678z M416.893,451.323l8.056,14.17h-15.583c-4.466,0-8.084,3.618-8.084,8.084
			c0,4.466,3.618,8.084,8.084,8.084h29.469c0.005,0,0.011,0.001,0.016,0.001c0.005,0,0.011-0.001,0.016-0.001h7.886
			c2.991,0,5.425,2.434,5.425,5.425v3.32c0,2.991-2.434,5.425-5.425,5.425h-194.75c-2.991,0-5.425-2.434-5.425-5.425v-3.32
			c0-2.991,2.434-5.425,5.425-5.425h7.734c0.015,0,0.03,0,0.045,0h120.481c4.466,0,8.084-3.618,8.084-8.084
			c0-4.466-3.618-8.084-8.084-8.084H273.807l8.055-14.17h25.883h83.265H416.893z M371.64,283.007l-22.262,22.5l-22.262-22.5H371.64z
			 M327.116,266.838l22.262-22.501l22.262,22.501H327.116z M371.64,350.996h-44.523l22.262-22.5L371.64,350.996z M371.64,367.164
			l-22.262,22.5l-22.262-22.5H371.64z M371.64,435.155h-44.523l22.262-22.501L371.64,435.155z M360.75,401.159l22.176-22.414v44.828
			L360.75,401.159z M360.751,317.001l22.175-22.414v44.828L360.751,317.001z M382.925,255.257l-22.176-22.414l22.176-22.414V255.257
			z M349.378,221.349l-22.262-22.501h44.523L349.378,221.349z M338.005,232.844l-22.176,22.414V210.43L338.005,232.844z
			 M338.005,317.001l-22.176,22.414v-44.828L338.005,317.001z M338.005,401.159l-22.176,22.414v-44.828L338.005,401.159z
			 M421.968,96.091h-47.165h-55.251c-4.466,0-8.084,3.618-8.084,8.084v57.158c0,4.466,3.619,8.084,8.084,8.084h55.251h47.165v8.413
			c-0.001,2.674-2.177,4.851-4.852,4.851h-26.106h-0.04c-0.002,0-0.003,0-0.005,0h-83.219h-26.106c-2.674,0-4.851-2.176-4.851-4.851
			v-50.617V87.678c0-2.674,2.176-4.851,4.851-4.851h135.476c2.674,0,4.851,2.176,4.851,4.851V96.091z M421.967,112.26v40.989
			h-39.081V112.26H421.967z M366.717,112.26v40.989h-39.082V112.26H366.717z"/>
	</g>
</g>
</svg>